<?xml version="1.0" encoding="UTF-8"?>
<svg width="155px" height="155px" viewBox="0 0 155 155" version="1.1" xmlns="http://www.w3.org/2000/svg" xmlns:xlink="http://www.w3.org/1999/xlink">
    <title>icon</title>
    <defs>
        <rect id="path-1" x="0" y="0" width="155" height="155"></rect>
        <linearGradient x1="50%" y1="0%" x2="50%" y2="100%" id="linearGradient-3">
            <stop stop-color="#29B9B9" offset="0%"></stop>
            <stop stop-color="#50B6E2" offset="100%"></stop>
        </linearGradient>
    </defs>
    <g id="Page-1" stroke="none" stroke-width="1" fill="none" fill-rule="evenodd">
        <g id="icon">
            <mask id="mask-2" fill="white">
                <use xlink:href="#path-1"></use>
            </mask>
            <g id="Rectangle"></g>
            <g mask="url(#mask-2)" fill-rule="nonzero">
                <rect id="Rectangle" fill-opacity="0" fill="#FFFFFF" x="0" y="0" width="155" height="155"></rect>
                <rect id="Rectangle_1" fill="url(#linearGradient-3)" x="0" y="0" width="155" height="155" rx="24"></rect>
                <g id="Component_2_8" transform="translate(28.273438, 10.898438)" fill="#FFFFFF">
                    <path d="M95.8936719,17.9957422 L95.8936719,15.6489453 C95.8909852,10.6312319 92.697744,6.1706229 87.9487109,4.55070313 L84.1572656,-0.0012109375 L80.3706641,4.55070313 C75.621399,6.17031071 72.4280195,10.631113 72.4257031,15.6489453 L72.4257031,17.9957422 L64.6018359,27.3853516 L72.4269141,27.3853516 L72.4269141,35.2104297 L95.9009375,35.2104297 L95.9009375,27.3853516 L103.724805,27.3853516 L95.8936719,17.9957422 Z M84.1572656,19.5602734 C81.99643,19.5602734 80.2447266,17.80857 80.2447266,15.6477344 C80.2447266,13.4868987 81.99643,11.7351953 84.1572656,11.7351953 C86.3181013,11.7351953 88.0698049,13.4868987 88.0698049,15.6477344 L88.0698049,15.6477344 C88.0701259,16.685614 87.658055,17.6810948 86.9242767,18.4151001 C86.1904985,19.1491054 85.1951453,19.5614844 84.1572656,19.5614844 L84.1572656,19.5602734 Z" id="Path_48"></path>
                    <path d="M72.2888672,40.1217578 C70.5669141,68.5436719 50.2740234,89.9811328 25.4740234,89.9811328 C25.4740234,89.9811328 36.7769141,92.3666797 54.6576172,89.9811328 C77.2343359,86.1872656 94.0397266,68.5436719 95.7616797,40.1217578 L72.2888672,40.1217578 Z" id="Path_50"></path>
                    <path d="M88.0698047,101.723594 C88.0701259,102.761152 87.6581826,103.756325 86.9246314,104.490103 C86.1910803,105.223881 85.1960351,105.636133 84.1584766,105.636133 L13.7364063,105.636133 C11.5755706,105.636133 9.82386719,103.884429 9.82386719,101.723594 L9.82386719,31.2978906 C9.82386719,29.137055 11.5755706,27.3853516 13.7364063,27.3853516 L56.8954297,27.3853516 L65.4151172,17.5602734 L7.82507813,17.5602734 C3.50340681,17.5602734 -2.81376998e-07,21.0636802 -2.81376998e-07,25.3853516 L-2.81376998e-07,107.636133 C-2.81376998e-07,109.711361 0.823834937,111.701704 2.29112947,113.169225 C3.758424,114.636747 5.74863877,115.461211 7.82386719,115.461211 L90.0698047,115.461211 C92.1450331,115.461211 94.1353754,114.637376 95.6028971,113.170081 C97.0704187,111.702787 97.8948828,107.712572 97.8948828,105.637344 C97.8948828,104.253858 97.8948828,89.8462019 97.8948828,62.414375 C96.2427139,67.6122894 94.2641144,71.8380432 88.0698047,78.5736328 L88.0698047,101.723594 Z" id="Path_51"></path>
                </g>
            </g>
        </g>
    </g>
</svg>